<?xml version="1.0" standalone="no"?>
<!DOCTYPE svg PUBLIC "-//W3C//DTD SVG 20010904//EN"
 "http://www.w3.org/TR/2001/REC-SVG-20010904/DTD/svg10.dtd">
<svg version="1.0" xmlns="http://www.w3.org/2000/svg"
 width="424.000000pt" height="424.000000pt" viewBox="0 0 424.000000 424.000000"
 preserveAspectRatio="xMidYMid meet">
<metadata>
Created by potrace 1.14, written by Peter Selinger 2001-2017
</metadata>
<g transform="translate(0.000000,424.000000) scale(0.100000,-0.100000)"
fill="#000000" stroke="none">
<path d="M0 2120 l0 -2120 2120 0 2120 0 0 2120 0 2120 -2120 0 -2120 0 0
-2120z m2741 1709 c139 -47 160 -235 34 -306 -68 -39 -143 -28 -201 29 -87 83
-53 233 61 273 50 17 63 18 106 4z m-1149 -9 c116 -33 151 -183 62 -267 -110
-104 -288 -1 -260 150 9 46 53 95 101 112 49 17 51 17 97 5z m1639 -481 c139
-47 160 -235 34 -306 -68 -39 -143 -28 -201 29 -87 83 -53 233 61 273 50 17
63 18 106 4z m-2129 -9 c116 -33 151 -183 62 -267 -110 -104 -288 -1 -260 150
9 46 53 95 101 112 49 17 51 17 97 5z m-480 -480 c116 -33 151 -183 62 -267
-110 -104 -288 -1 -260 150 9 46 53 95 101 112 49 17 51 17 97 5z m3089 -1
c139 -47 160 -235 34 -306 -68 -39 -143 -28 -201 29 -87 83 -53 233 61 273 50
17 63 18 106 4z m-3071 -1162 c48 -25 90 -89 90 -136 0 -37 -40 -111 -72 -135
-16 -11 -49 -21 -80 -24 -44 -3 -59 0 -88 20 -59 40 -82 84 -78 146 6 64 29
99 88 130 56 28 86 28 140 -1z m2131 -3 c38 -19 70 -67 76 -113 20 -146 -155
-238 -261 -138 -66 63 -68 163 -5 226 50 51 123 60 190 25z m980 0 c38 -19 70
-67 76 -113 20 -146 -155 -238 -261 -138 -66 63 -68 163 -5 226 50 51 123 60
190 25z m-2621 -487 c48 -25 90 -89 90 -136 0 -37 -40 -111 -72 -135 -16 -11
-49 -21 -80 -24 -44 -3 -59 0 -88 20 -59 40 -82 84 -78 146 6 64 29 99 88 130
56 28 86 28 140 -1z m2131 -3 c38 -19 70 -67 76 -113 20 -146 -155 -238 -261
-138 -66 63 -68 163 -5 226 50 51 123 60 190 25z m-1641 -477 c48 -25 90 -89
90 -136 0 -37 -40 -111 -72 -135 -16 -11 -49 -21 -80 -24 -44 -3 -59 0 -88 20
-59 40 -82 84 -78 146 6 64 29 99 88 130 56 28 86 28 140 -1z m1151 -13 c38
-19 70 -67 76 -113 20 -146 -155 -238 -261 -138 -66 63 -68 163 -5 226 50 51
123 60 190 25z m980 0 c38 -19 70 -67 76 -113 20 -146 -155 -238 -261 -138
-66 63 -68 163 -5 226 50 51 123 60 190 25z"/>
</g>
</svg>
